HIERARCHY
ROOT Hips
{
    OFFSET 0.0 0.0 0.0
    CHANNELS 6 Xposition Yposition Zposition Zrotation Xrotation Yrotation
    JOINT Spine
    {
        OFFSET 0.0 5.0 0.0
        CHANNELS 3 Zrotation Xrotation Yrotation
        JOINT Chest
        {
            OFFSET 0.0 5.0 0.0
            CHANNELS 3 Zrotation Xrotation Yrotation
            JOINT Neck
            {
                OFFSET 0.0 8.0 0.0
                CHANNELS 3 Zrotation Xrotation Yrotation
                JOINT Head
                {
                    OFFSET 0.0 5.0 0.0
                    CHANNELS 3 Zrotation Xrotation Yrotation
                    End Site
                    {
                        OFFSET 0.0 3.0 0.0
                    }
                }
            }
            JOINT LeftShoulder
            {
                OFFSET -5.0 0.0 0.0
                CHANNELS 3 Zrotation Xrotation Yrotation
                JOINT LeftArm
                {
                    OFFSET 0.0 -10.0 0.0
                    CHANNELS 3 Zrotation Xrotation Yrotation
                    JOINT LeftForeArm
                    {
                        OFFSET 0.0 -10.0 0.0
                        CHANNELS 3 Zrotation Xrotation Yrotation
                        End Site
                        {
                            OFFSET 0.0 -3.0 0.0
                        }
                    }
                }
            }
        }
    }
}

MOTION
Frames: 22
Frame Time: 0.033333
970.000000 442.938926 140.995975 0.000000 0.000000 0.000000 0.000000 0.000000 0.000000 29.678605 -14.814733 0.000000 180.000000 0.574140 0.000000 29.744881 -2.572141 -0.000000 150.255119 2.731775 30.000000 19.983107 -3.236869 0.000000 18.000000 0.675083 0.000000
1354.522934 467.411410 130.977748 0.000000 0.000000 0.000000 0.000000 0.000000 0.000000 150.622570 3.463663 4.973798 -29.377430 -0.676292 4.973798 140.176400 2.154558 3.759997 -12.221629 1.768247 29.763441 132.794256 3.722318 -3.759997 -2.626015 -0.478294 0.313953
969.997807 442.887864 131.275800 0.000000 0.000000 0.000000 0.000000 0.000000 0.000000 31.061399 30.978361 9.635073 180.000000 -2.693751 9.635073 30.285790 -10.350041 7.460697 149.714210 -15.000659 29.057495 19.151579 -6.020063 -7.460697 18.000000 0.659602 0.626666
1246.736984 514.278152 114.149827 0.000000 0.000000 0.000000 0.000000 0.000000 0.000000 143.557092 -5.383695 13.690942 -36.442908 -2.445872 13.690942 133.761037 -2.746134 11.043737 -156.950665 -5.717469 27.893295 0.000000 0.000000 0.000000 1.928484 0.484925 0.936907
1245.221100 458.637464 109.801845 0.000000 0.000000 0.000000 0.000000 0.000000 0.000000 160.701064 4.478061 16.886559 -19.298936 12.024455 16.886559 140.193827 0.299481 14.452610 -157.554825 -5.219185 26.289200 29.500467 5.183267 -14.452610 -15.049953 -0.518327 1.243449
1257.365570 418.514181 92.343713 0.000000 0.000000 0.000000 0.000000 0.000000 0.000000 -143.710676 -0.666682 19.021130 36.289324 -10.404867 19.021130 163.220413 5.594095 17.633558 11.688054 -2.644617 24.270510 152.038385 1.153758 -17.633558 -2.339948 -0.073978 1.545085
1275.099564 408.163741 116.598047 0.000000 0.000000 0.000000 0.000000 0.000000 0.000000 -132.929531 -2.688265 19.960535 47.070469 7.424224 19.960535 173.491912 -10.768951 20.536413 -160.709681 -4.685413 21.869059 33.138793 5.306548 -20.536413 -14.686121 -0.530655 1.840623
1290.611115 384.880857 99.001351 0.000000 0.000000 0.000000 0.000000 0.000000 0.000000 -132.705235 0.480563 19.645745 47.294765 14.355046 19.645745 -173.778854 -7.427721 23.115397 20.496835 1.031913 19.122720 -161.220290 -3.768522 -23.115397 1.723235 0.402379 2.128896
1302.817154 380.305352 103.505831 0.000000 0.000000 0.000000 0.000000 0.000000 0.000000 -131.493915 1.360644 18.096541 48.506085 -2.116347 18.096541 -165.393697 1.389319 25.329838 23.154815 -0.755127 16.074804 -178.200316 0.861253 -25.329838 0.138141 -0.010472 2.408768
1304.997711 379.563582 91.253701 0.000000 0.000000 0.000000 0.000000 0.000000 0.000000 -126.727972 -4.365560 15.410265 53.272028 1.786593 15.410265 -160.219593 0.169239 27.144812 28.448880 2.392923 12.773379 -174.368770 -0.995074 -27.144812 0.079526 -0.100664 2.679134
1311.668472 386.890390 90.738474 0.000000 0.000000 0.000000 0.000000 0.000000 0.000000 -122.308728 -1.738842 11.755705 57.691272 -10.434422 11.755705 -158.801130 6.467453 28.531695 150.942637 -0.009240 9.270510 -154.878332 -3.957659 -28.531695 2.695409 0.570957 2.938926
1305.131836 395.180186 72.376348 0.000000 0.000000 0.000000 0.000000 0.000000 0.000000 -125.112810 -12.258898 7.362491 54.887190 -6.057979 7.362491 -146.487292 4.405278 29.468618 -175.167369 1.456796 5.621439 -159.224034 -4.172447 -29.468618 1.782042 0.452152 3.187120
1296.320457 392.734526 66.311867 0.000000 0.000000 0.000000 0.000000 0.000000 0.000000 -131.035750 -2.646488 2.506665 48.964250 0.617734 2.506665 -128.969563 2.026878 29.940802 38.856147 -1.755381 1.883716 -134.776850 2.309294 -29.940802 3.458429 -0.117221 3.422736
1306.963577 386.612041 64.237848 0.000000 0.000000 0.000000 0.000000 0.000000 0.000000 -124.469622 1.565622 -2.506665 55.530378 -15.282042 -2.506665 -109.994856 3.455748 29.940802 37.691309 -1.586645 -1.883716 -118.274788 -0.838084 -29.940802 5.098336 0.038832 3.644843
969.892723 442.572198 66.179640 0.000000 0.000000 0.000000 0.000000 0.000000 0.000000 41.287575 -2.078800 -7.362491 180.000000 4.004202 -7.362491 30.974696 -5.378099 29.468618 149.025304 9.384585 -5.621439 15.072869 -1.505427 -29.468618 18.000000 0.077206 3.852566
969.876883 442.545207 64.411445 0.000000 0.000000 0.000000 0.000000 0.000000 0.000000 42.241956 18.824616 -11.755705 180.000000 -11.213231 -11.755705 30.826133 -7.142323 28.531695 149.173867 -5.172940 -9.270510 14.823070 3.577549 -28.531695 18.000000 0.121151 4.045085
969.859960 442.518116 50.279496 0.000000 0.000000 0.000000 0.000000 0.000000 0.000000 43.199779 -28.310131 -15.410265 180.000000 19.960820 -15.410265 30.649504 -13.859585 27.144812 149.350496 8.526622 -12.773379 14.587557 -4.317850 -27.144812 18.000000 -0.365527 4.221640
969.841956 442.490926 54.404802 0.000000 0.000000 0.000000 0.000000 0.000000 0.000000 44.157210 13.037340 -18.096541 180.000000 -1.828195 -18.096541 30.446417 -5.585610 25.329838 149.553583 -11.548304 -16.074804 14.366154 4.262577 -25.329838 18.000000 -0.001760 4.381533
969.822873 442.463637 50.647889 0.000000 0.000000 0.000000 0.000000 0.000000 0.000000 45.110117 5.148669 -19.645745 180.000000 2.144648 -19.645745 30.218633 -9.526397 23.115397 149.781367 -1.081481 -19.122720 14.158653 -0.330330 -23.115397 18.000000 -0.448542 4.524135
969.802712 442.436251 59.427745 0.000000 0.000000 0.000000 0.000000 0.000000 0.000000 46.054109 16.559808 -19.960535 180.000000 9.324408 -19.960535 29.968037 -11.618819 20.536413 150.031963 -6.161860 -21.869059 13.964823 -2.705831 -20.536413 18.000000 0.528750 4.648882
1187.040939 541.658249 66.457135 0.000000 0.000000 0.000000 0.000000 0.000000 0.000000 82.806623 -0.582784 -19.021130 -97.193377 0.337683 -19.021130 45.395981 -6.776943 17.633558 -156.144455 -2.562271 -24.270510 0.000000 0.000000 0.000000 0.000000 0.000000 0.000000
1182.242889 522.024286 34.618150 0.000000 0.000000 0.000000 0.000000 0.000000 0.000000 -105.721938 -1.702461 -16.886559 74.278062 36.113186 -16.886559 -155.708006 -3.188893 14.452610 -157.302521 -1.746286 -26.289200 0.000000 0.000000 0.000000 2.684983 0.238351 4.842916
